<svg width="213" height="46" viewBox="0 0 213 46" fill="none" xmlns="http://www.w3.org/2000/svg">
<g id="Logo_osnovnoy_2 1">
<g id="Group">
<g id="Group_2">
<path id="Vector" d="M77.321 25.1358C77.321 30.4992 73.2779 34.2836 67.6235 34.2836C62.2926 34.2836 57.8906 30.8838 57.8906 24.1887V20.8933C57.8906 14.4437 61.0758 9.75669 66.9786 8.67047L75.6998 7.60938V11.0439L67.801 11.9639C64.2234 12.6655 62.0402 14.9056 61.8252 19.5674C63.1841 16.9041 65.8328 16.1948 68.2665 16.1948C73.4929 16.1967 77.321 19.8071 77.321 25.1358ZM73.3134 25.101C73.3134 21.8771 70.9527 19.5636 67.661 19.5636C64.3339 19.5636 61.9731 21.8771 61.9731 25.101C61.9731 28.3964 64.3339 30.6732 67.661 30.6732C70.9527 30.6732 73.3134 28.3944 73.3134 25.101Z" fill="#18181b"/>
<path id="Vector_2" d="M98.6093 26.1871C98.6231 25.6131 98.6093 25.0642 98.5698 24.5346C98.1142 18.6377 94.3 15.3906 89.1347 15.3906C83.6164 15.3906 79.6602 19.49 79.6602 24.8902C79.6602 30.5648 83.792 34.3183 89.4227 34.3183C93.584 34.3183 96.8934 31.9332 98.0393 28.8698H94.0889C93.1778 30.0797 91.6355 30.99 89.4562 30.99C86.3913 30.99 84.0069 29.0244 83.7565 26.1871H98.6093ZM83.7604 23.1372C83.9714 20.5453 86.2178 18.6512 89.1367 18.6512C92.168 18.6512 94.3019 20.5782 94.4104 23.1372H83.7604Z" fill="#18181b"/>
<path id="Vector_3" d="M99.9847 30.4973C101.417 30.4278 102.917 29.6566 102.917 26.7478V15.7773H117.49V33.9686H113.447V19.353H106.891V26.8193C106.891 31.8657 103.85 34.1445 99.9492 34.0749L99.9847 30.4973Z" fill="#18181b"/>
<path id="Vector_4" d="M128.538 24.2603L137.435 15.7754H132.725L127.806 20.4546L125.037 23.089V15.7754H124.974H121.231H120.992V33.9667H121.231H124.974H125.037V25.4354L127.763 28.4409L132.762 33.9667H137.468L128.538 24.2603Z" fill="#18181b"/>
<path id="Vector_5" d="M153.612 15.758L153.121 18.46C151.528 16.5505 148.788 15.4062 146.323 15.4062C146.293 15.4062 146.268 15.4101 146.238 15.4101C146.195 15.4101 146.153 15.4062 146.108 15.4062C143.428 15.4062 141.246 16.3668 139.684 17.9305C139.609 18.0039 139.531 18.0773 139.458 18.1527C139.414 18.1991 139.373 18.2513 139.331 18.2996C137.827 19.9676 136.984 22.2386 136.984 24.8343C136.984 24.8459 136.986 24.8575 136.986 24.8691C136.986 24.8807 136.984 24.8923 136.984 24.9039C136.984 27.4996 137.827 29.7726 139.331 31.4386C139.375 31.4869 139.414 31.5372 139.458 31.5855C139.531 31.6628 139.609 31.7343 139.684 31.8078C141.246 33.3714 143.428 34.332 146.108 34.332C146.151 34.332 146.195 34.3281 146.238 34.3281C146.268 34.3281 146.293 34.332 146.323 34.332C148.788 34.332 151.528 33.1878 153.121 31.2782V33.9802H157.235V33.9454V15.7947V15.7599H153.612V15.758ZM147.145 30.6906C143.639 30.6906 141.134 28.2727 141.134 24.873C141.134 21.4732 143.639 19.0553 147.145 19.0553C150.616 19.0553 153.086 21.5795 153.086 24.873C153.086 28.1664 150.616 30.6906 147.145 30.6906Z" fill="#18181b"/>
<path id="Vector_6" d="M160.73 15.758V15.7928V42.1385V42.1732H164.845V31.2801C166.438 33.1897 169.178 34.3339 171.643 34.3339C171.672 34.3339 171.698 34.33 171.728 34.33C171.771 34.33 171.812 34.3339 171.858 34.3339C174.538 34.3339 176.719 33.3733 178.281 31.8097C178.356 31.7363 178.435 31.6628 178.508 31.5874C178.551 31.5411 178.593 31.4889 178.634 31.4406C180.139 29.7726 180.981 27.5016 180.981 24.9058C180.981 24.8943 180.979 24.8827 180.979 24.8711C180.979 24.8595 180.981 24.8479 180.981 24.8363C180.981 22.2406 180.139 19.9676 178.634 18.3016C178.591 18.2532 178.551 18.203 178.508 18.1547C178.435 18.0774 178.356 18.0058 178.281 17.9324C176.719 16.3688 174.538 15.4082 171.858 15.4082C171.814 15.4082 171.771 15.4121 171.728 15.4121C171.698 15.4121 171.672 15.4082 171.643 15.4082C169.178 15.4082 166.438 16.5524 164.845 18.462L164.353 15.76H160.73V15.758ZM164.882 24.8711C164.882 21.5757 167.351 19.0534 170.822 19.0534C174.329 19.0534 176.834 21.4713 176.834 24.8711C176.834 28.2708 174.329 30.6887 170.822 30.6887C167.351 30.6906 164.882 28.1664 164.882 24.8711Z" fill="#18181b"/>
<path id="Vector_7" d="M211.619 22.6212V33.9917H207.535V23.6378C207.535 20.3385 205.815 18.8638 203.521 18.8638C201.156 18.8638 199.366 20.4081 199.366 23.6378V33.9917H195.281V23.6378C195.281 20.3385 193.526 18.8638 191.303 18.8638C188.903 18.8638 187.112 20.4081 187.112 23.6378V33.9917H182.992V15.7772H186.586L187.051 18.4038C188.126 16.5445 189.907 15.3926 192.666 15.3926C195.173 15.3926 197.228 16.4034 198.338 18.4038C199.557 16.5445 201.586 15.3926 204.596 15.3926C208.789 15.3906 211.619 18.1642 211.619 22.6212Z" fill="#18181b"/>
</g>
<g id="Group_3">
<path id="Vector_8" d="M21.294 35.586L14.0382 42.5594C13.551 43.0271 13.5589 43.6263 13.7266 44.0322C13.8942 44.4381 14.3182 44.871 14.9987 44.8729L27.7668 44.9135C28.749 44.9174 29.5635 44.1366 29.5813 43.1721C29.5813 43.1218 29.5832 43.0697 29.5832 43.0175C29.5911 40.2768 28.4808 37.5941 26.5223 35.6362C25.0925 34.2098 22.7495 34.1866 21.294 35.586Z" fill="#529FD7"/>
<path id="Vector_9" d="M12.9634 30.2827L2.80055 30.1861C2.12013 30.1803 1.69216 30.6074 1.51861 31.0114C1.34505 31.4153 1.33124 32.0145 1.81049 32.488L10.8097 41.3633C11.502 42.0456 12.6419 42.0572 13.348 41.3904C13.3855 41.3556 13.4229 41.3189 13.4604 41.2821C15.4445 39.3494 16.5943 36.6841 16.6219 33.9415C16.6416 31.943 15.0007 30.3021 12.9634 30.2827Z" fill="#529FD7"/>
<path id="Vector_10" d="M3.15785 28.8793C3.2111 28.8793 3.26237 28.8812 3.31562 28.8812C6.11224 28.8889 8.84968 27.8008 10.8475 25.8815C12.303 24.4841 12.3247 22.1861 10.8988 20.7597L3.78304 13.649C3.30576 13.1716 2.69437 13.1794 2.28021 13.3436C1.86604 13.5079 1.42426 13.9235 1.42229 14.5903L1.38087 27.1011C1.37693 28.0636 2.17371 28.8619 3.15785 28.8793Z" fill="#529FD7"/>
<path id="Vector_11" d="M5.08758 13.0831C7.05981 15.0275 9.7795 16.1543 12.5781 16.1813C14.6154 16.2007 16.2898 14.5926 16.3095 12.596L16.4081 2.63647C16.4141 1.96966 15.9782 1.55025 15.566 1.38017C15.1538 1.21008 14.5424 1.19655 14.0592 1.66622L5.00475 10.4855C4.30856 11.1639 4.29672 12.281 4.97714 12.9729C5.01461 13.0097 5.05011 13.0464 5.08758 13.0831Z" fill="#529FD7"/>
<path id="Vector_12" d="M26.0256 10.5722L33.2814 3.59876C33.7685 3.13103 33.7607 2.53187 33.593 2.12599C33.4254 1.72011 33.0014 1.28716 32.3209 1.28523L19.5547 1.24464C18.5726 1.24078 17.758 2.02162 17.7403 2.98607C17.7403 3.03826 17.7383 3.08851 17.7383 3.14069C17.7304 5.88137 18.8408 8.56406 20.7992 10.522C22.2271 11.9483 24.5721 11.9696 26.0256 10.5722Z" fill="#529FD7"/>
<path id="Vector_13" d="M34.3579 15.8736L44.5208 15.9702C45.2012 15.976 45.6292 15.5489 45.8027 15.1449C45.9763 14.741 45.9901 14.1418 45.5108 13.6683L36.5116 4.79297C35.8193 4.11071 34.6794 4.09911 33.9733 4.76592C33.9358 4.80071 33.8984 4.83743 33.8609 4.87415C31.8768 6.80692 30.727 9.47222 30.6994 12.2148C30.6777 14.2152 32.3206 15.8542 34.3579 15.8736Z" fill="#529FD7"/>
<path id="Vector_14" d="M44.1652 17.2769C44.1119 17.2769 44.0607 17.2749 44.0074 17.2749C41.2108 17.2672 38.4733 18.3554 36.4755 20.2746C35.02 21.672 34.9983 23.9701 36.4242 25.3965L43.54 32.5071C44.0173 32.9845 44.6287 32.9768 45.0428 32.8125C45.457 32.6482 45.8988 32.2327 45.9007 31.5659L45.9422 19.0531C45.9441 18.0925 45.1473 17.2943 44.1652 17.2769Z" fill="#529FD7"/>
<path id="Vector_15" d="M42.2327 33.0755C40.2605 31.1311 37.5408 30.0043 34.7422 29.9772C32.7049 29.9579 31.0305 31.566 31.0108 33.5625L30.9122 43.5221C30.9063 44.1889 31.3421 44.6083 31.7543 44.7784C32.1665 44.9485 32.7779 44.962 33.2611 44.4923L42.3175 35.6731C43.0137 34.9947 43.0256 33.8776 42.3451 33.1856C42.3077 33.1489 42.2702 33.1102 42.2327 33.0755Z" fill="#529FD7"/>
</g>
</g>
</g>
</svg>
